<svg xmlns="http://www.w3.org/2000/svg" width="1024" height="1024" viewBox="0 0 1254 1254" preserveAspectRatio="xMidYMid meet">
<path d="M 464,484 L 459,512 L 447,539 L 397,598 L 389,616 L 387,636 L 443,606 L 468,578 L 477,556 L 479,523 L 473,501 Z M 399,390 L 397,392 L 403,409 L 403,431 L 391,462 L 367,491 L 302,546 L 289,564 L 280,584 L 276,620 L 281,639 L 296,659 L 313,668 L 318,668 L 314,651 L 315,635 L 326,613 L 343,598 L 393,572 L 411,559 L 429,539 L 443,509 L 446,471 L 439,444 L 424,416 Z M 1093,106 L 1055,84 L 1013,76 L 986,77 L 954,83 L 906,103 L 868,130 L 837,164 L 791,244 L 775,266 L 757,284 L 743,294 L 722,303 L 680,308 L 641,321 L 612,338 L 586,361 L 555,402 L 531,454 L 514,515 L 494,633 L 474,717 L 449,782 L 423,831 L 405,857 L 331,859 L 281,849 L 257,837 L 243,823 L 238,811 L 239,791 L 244,779 L 258,760 L 310,716 L 371,678 L 467,628 L 421,640 L 370,658 L 275,702 L 189,755 L 138,800 L 121,823 L 114,838 L 112,866 L 118,881 L 126,891 L 156,911 L 195,923 L 246,929 L 303,928 L 369,918 L 380,920 L 366,947 L 318,1007 L 263,1059 L 184,1118 L 178,1126 L 180,1134 L 197,1139 L 225,1139 L 285,1130 L 348,1110 L 430,1073 L 513,1026 L 605,964 L 687,898 L 756,833 L 872,794 L 949,760 L 1024,716 L 1077,670 L 1098,642 L 1109,618 L 1113,584 L 1105,558 L 1086,534 L 1058,516 L 1023,505 L 978,502 L 996,515 L 1015,539 L 1019,561 L 1009,592 L 986,622 L 945,658 L 861,711 L 857,710 L 900,652 L 926,605 L 948,544 L 957,494 L 957,455 L 947,414 L 929,385 L 893,357 L 872,330 L 862,297 L 862,268 L 875,222 L 899,186 L 935,157 L 960,147 L 977,144 L 1002,145 L 1025,153 L 1043,169 L 1052,190 L 1052,207 L 1042,230 L 1033,239 L 1015,248 L 1000,249 L 989,244 L 984,245 L 982,256 L 986,264 L 998,274 L 1013,280 L 1047,281 L 1073,273 L 1092,262 L 1105,251 L 1118,233 L 1126,214 L 1130,191 L 1129,170 L 1122,145 L 1109,123 Z" fill="#E20114" fill-rule="evenodd"/>
<path d="M 457,920 L 416,928 L 379,979 L 338,1023 L 299,1057 L 262,1084 L 231,1103 L 230,1106 L 255,1097 L 297,1075 L 357,1032 L 414,977 L 447,937 Z M 889,512 L 887,512 L 879,542 L 867,572 L 843,618 L 811,663 L 770,706 L 769,710 L 784,702 L 812,680 L 841,650 L 861,622 L 871,604 L 883,572 L 889,539 Z M 1110,570 L 1105,558 L 1093,541 L 1069,522 L 1041,510 L 1003,503 L 1003,505 L 1035,518 L 1046,526 L 1060,541 L 1069,560 L 1071,580 L 1065,605 L 1056,622 L 1040,643 L 1015,668 L 987,690 L 943,718 L 906,738 L 818,777 L 715,812 L 612,839 L 482,865 L 387,877 L 305,878 L 244,869 L 222,862 L 199,850 L 186,838 L 178,824 L 177,809 L 184,791 L 182,789 L 165,806 L 155,822 L 150,838 L 151,857 L 159,873 L 170,884 L 182,892 L 206,902 L 260,912 L 323,913 L 406,906 L 525,887 L 644,862 L 771,829 L 872,794 L 941,764 L 993,736 L 1044,701 L 1077,670 L 1098,642 L 1107,624 L 1112,605 L 1113,584 Z M 698,384 L 688,380 L 670,379 L 653,382 L 630,392 L 606,412 L 581,448 L 565,483 L 549,532 L 522,658 L 499,736 L 473,795 L 446,841 L 457,833 L 489,799 L 524,747 L 554,684 L 602,549 L 624,497 L 656,443 L 699,396 L 700,387 Z M 636,349 L 638,351 L 658,347 L 684,347 L 727,358 L 746,368 L 766,383 L 784,402 L 796,421 L 813,409 L 834,400 L 868,398 L 896,407 L 928,433 L 916,411 L 904,399 L 885,387 L 852,377 L 803,371 L 789,366 L 751,345 L 752,342 L 770,333 L 787,317 L 799,300 L 809,275 L 779,306 L 750,323 L 720,331 L 677,334 L 653,341 Z" fill="#FFFFFF" fill-rule="evenodd"/>
</svg>